<mxfile host="Electron" modified="2024-05-06T11:02:27.176Z" agent="Mozilla/5.0 (X11; Linux x86_64) AppleWebKit/537.36 (KHTML, like Gecko) draw.io/22.0.3 Chrome/114.0.5735.289 Electron/25.8.4 Safari/537.36" etag="vY4pRx5tto055kaAcg0Q" version="22.0.3" type="device">
  <diagram id="R2lEEEUBdFMjLlhIrx00" name="Page-1">
    <mxGraphModel dx="1137" dy="803" grid="1" gridSize="10" guides="1" tooltips="1" connect="1" arrows="1" fold="1" page="1" pageScale="1" pageWidth="850" pageHeight="1100" background="#ffffff" math="0" shadow="0" extFonts="Permanent Marker^https://fonts.googleapis.com/css?family=Permanent+Marker">
      <root>
        <mxCell id="0" />
        <mxCell id="1" parent="0" />
        <mxCell id="0wPaObtVcOfNYQ0jHdik-21" value="" style="rounded=1;whiteSpace=wrap;html=1;fillColor=#dae8fc;strokeColor=#6c8ebf;" parent="1" vertex="1">
          <mxGeometry x="70" y="20" width="380" height="340" as="geometry" />
        </mxCell>
        <mxCell id="0wPaObtVcOfNYQ0jHdik-22" value="" style="rounded=1;whiteSpace=wrap;html=1;fillColor=#f8cecc;strokeColor=#fb8079;gradientColor=none;" parent="1" vertex="1">
          <mxGeometry x="450" y="20" width="235" height="340" as="geometry" />
        </mxCell>
        <mxCell id="0wPaObtVcOfNYQ0jHdik-31" value="" style="endArrow=classic;html=1;rounded=0;strokeColor=#FF3399;strokeWidth=2;fontColor=none;exitX=0.75;exitY=0;exitDx=0;exitDy=0;entryX=0.75;entryY=1;entryDx=0;entryDy=0;" parent="1" target="RYH5115ErJz50b74uIpc-11" edge="1">
          <mxGeometry relative="1" as="geometry">
            <mxPoint x="329.6700000000001" y="150" as="sourcePoint" />
            <mxPoint x="320" y="200" as="targetPoint" />
            <Array as="points">
              <mxPoint x="330" y="190" />
              <mxPoint x="330" y="195" />
              <mxPoint x="350" y="195" />
              <mxPoint x="380" y="195" />
            </Array>
          </mxGeometry>
        </mxCell>
        <mxCell id="0wPaObtVcOfNYQ0jHdik-32" value="SC1" style="edgeLabel;resizable=0;html=1;align=center;verticalAlign=middle;fontColor=none;fontSize=13;" parent="0wPaObtVcOfNYQ0jHdik-31" connectable="0" vertex="1">
          <mxGeometry relative="1" as="geometry">
            <mxPoint x="12" as="offset" />
          </mxGeometry>
        </mxCell>
        <mxCell id="0wPaObtVcOfNYQ0jHdik-33" value="" style="endArrow=classic;html=1;rounded=0;strokeColor=#CCCC00;strokeWidth=2;fontColor=none;exitX=0.75;exitY=0;exitDx=0;exitDy=0;entryX=0.75;entryY=1;entryDx=0;entryDy=0;" parent="1" target="RYH5115ErJz50b74uIpc-10" edge="1">
          <mxGeometry relative="1" as="geometry">
            <mxPoint x="126.84000000000003" y="150" as="sourcePoint" />
            <mxPoint x="340" y="240" as="targetPoint" />
            <Array as="points">
              <mxPoint x="127" y="200" />
              <mxPoint x="240" y="200" />
              <mxPoint x="240" y="238" />
            </Array>
          </mxGeometry>
        </mxCell>
        <mxCell id="0wPaObtVcOfNYQ0jHdik-34" value="SC0" style="edgeLabel;resizable=0;html=1;align=center;verticalAlign=middle;fontColor=none;fontSize=13;" parent="0wPaObtVcOfNYQ0jHdik-33" connectable="0" vertex="1">
          <mxGeometry relative="1" as="geometry">
            <mxPoint x="-80" y="-15" as="offset" />
          </mxGeometry>
        </mxCell>
        <mxCell id="0wPaObtVcOfNYQ0jHdik-35" value="" style="endArrow=classic;html=1;rounded=0;strokeColor=#CCCC00;strokeWidth=2;fontColor=none;entryX=0.292;entryY=0;entryDx=0;entryDy=0;entryPerimeter=0;exitX=0.25;exitY=1;exitDx=0;exitDy=0;" parent="1" source="RYH5115ErJz50b74uIpc-11" edge="1">
          <mxGeometry relative="1" as="geometry">
            <mxPoint x="348.44" y="247.82999999999998" as="sourcePoint" />
            <mxPoint x="380.04999999999995" y="150" as="targetPoint" />
            <Array as="points">
              <mxPoint x="380" y="185" />
              <mxPoint x="380" y="180" />
            </Array>
          </mxGeometry>
        </mxCell>
        <mxCell id="0wPaObtVcOfNYQ0jHdik-36" value="SC0" style="edgeLabel;resizable=0;html=1;align=center;verticalAlign=middle;fontColor=none;fontSize=13;" parent="0wPaObtVcOfNYQ0jHdik-35" connectable="0" vertex="1">
          <mxGeometry relative="1" as="geometry">
            <mxPoint y="-5" as="offset" />
          </mxGeometry>
        </mxCell>
        <mxCell id="0wPaObtVcOfNYQ0jHdik-42" value="CA0" style="text;html=1;strokeColor=none;fillColor=none;align=center;verticalAlign=middle;whiteSpace=wrap;rounded=0;fontColor=none;" parent="1" vertex="1">
          <mxGeometry x="230" y="30" width="60" height="30" as="geometry" />
        </mxCell>
        <mxCell id="0wPaObtVcOfNYQ0jHdik-43" value="CA1" style="text;html=1;strokeColor=none;fillColor=none;align=center;verticalAlign=middle;whiteSpace=wrap;rounded=0;fontColor=none;" parent="1" vertex="1">
          <mxGeometry x="537.5" y="30" width="60" height="30" as="geometry" />
        </mxCell>
        <mxCell id="N7ZeSRbNAQWSS7sMdmcy-4" value="" style="rounded=0;whiteSpace=wrap;html=1;direction=south;" parent="1" vertex="1">
          <mxGeometry x="395.33" y="160" width="100" height="145.66" as="geometry" />
        </mxCell>
        <mxCell id="N7ZeSRbNAQWSS7sMdmcy-6" value="" style="endArrow=classic;html=1;rounded=0;strokeColor=#CCCC00;strokeWidth=2;fontColor=none;exitX=0.75;exitY=1;exitDx=0;exitDy=0;entryX=0.25;entryY=0;entryDx=0;entryDy=0;" parent="1" source="RYH5115ErJz50b74uIpc-9" edge="1">
          <mxGeometry relative="1" as="geometry">
            <mxPoint x="503.33999999999986" y="335" as="sourcePoint" />
            <mxPoint x="181.84000000000003" y="327.83000000000004" as="targetPoint" />
            <Array as="points">
              <mxPoint x="380" y="280" />
              <mxPoint x="380" y="310" />
              <mxPoint x="350" y="310" />
              <mxPoint x="280" y="310" />
              <mxPoint x="280" y="350" />
              <mxPoint x="182" y="350" />
            </Array>
          </mxGeometry>
        </mxCell>
        <mxCell id="N7ZeSRbNAQWSS7sMdmcy-7" value="SC0" style="edgeLabel;resizable=0;html=1;align=center;verticalAlign=middle;fontColor=none;" parent="N7ZeSRbNAQWSS7sMdmcy-6" connectable="0" vertex="1">
          <mxGeometry relative="1" as="geometry">
            <mxPoint x="-40" y="32" as="offset" />
          </mxGeometry>
        </mxCell>
        <mxCell id="N7ZeSRbNAQWSS7sMdmcy-10" value="" style="endArrow=classic;html=1;rounded=0;strokeColor=#FF3399;strokeWidth=2;fontColor=none;exitX=0.25;exitY=1;exitDx=0;exitDy=0;entryX=0.244;entryY=-0.008;entryDx=0;entryDy=0;entryPerimeter=0;" parent="1" source="RYH5115ErJz50b74uIpc-10" edge="1">
          <mxGeometry relative="1" as="geometry">
            <mxPoint x="135" y="310" as="sourcePoint" />
            <mxPoint x="182.5000000000001" y="150.88" as="targetPoint" />
            <Array as="points">
              <mxPoint x="260" y="228" />
              <mxPoint x="260" y="180" />
              <mxPoint x="183" y="180" />
            </Array>
          </mxGeometry>
        </mxCell>
        <mxCell id="N7ZeSRbNAQWSS7sMdmcy-11" value="SC1" style="edgeLabel;resizable=0;html=1;align=center;verticalAlign=middle;fontColor=none;fontSize=13;" parent="N7ZeSRbNAQWSS7sMdmcy-10" connectable="0" vertex="1">
          <mxGeometry relative="1" as="geometry">
            <mxPoint x="-40" y="-39" as="offset" />
          </mxGeometry>
        </mxCell>
        <mxCell id="N7ZeSRbNAQWSS7sMdmcy-14" value="" style="rounded=0;whiteSpace=wrap;html=1;fillColor=#000000;direction=south;" parent="1" vertex="1">
          <mxGeometry x="485.33000000000004" y="222.82999999999998" width="10" height="20" as="geometry" />
        </mxCell>
        <mxCell id="N7ZeSRbNAQWSS7sMdmcy-44" value="" style="rounded=0;whiteSpace=wrap;html=1;fillColor=#000000;direction=south;" parent="1" vertex="1">
          <mxGeometry x="485.33000000000004" y="180" width="10" height="20" as="geometry" />
        </mxCell>
        <mxCell id="RYH5115ErJz50b74uIpc-8" value="ETH Switch" style="text;html=1;strokeColor=none;fillColor=none;align=center;verticalAlign=middle;whiteSpace=wrap;rounded=0;" parent="1" vertex="1">
          <mxGeometry x="415.33000000000004" y="217.82999999999998" width="60" height="30" as="geometry" />
        </mxCell>
        <mxCell id="RYH5115ErJz50b74uIpc-9" value="" style="rounded=0;whiteSpace=wrap;html=1;fillColor=#000000;direction=south;" parent="1" vertex="1">
          <mxGeometry x="395.33000000000004" y="265" width="10" height="20" as="geometry" />
        </mxCell>
        <mxCell id="RYH5115ErJz50b74uIpc-10" value="" style="rounded=0;whiteSpace=wrap;html=1;fillColor=#000000;direction=south;" parent="1" vertex="1">
          <mxGeometry x="395.33000000000004" y="222.83" width="10" height="20" as="geometry" />
        </mxCell>
        <mxCell id="RYH5115ErJz50b74uIpc-11" value="" style="rounded=0;whiteSpace=wrap;html=1;fillColor=#000000;direction=south;" parent="1" vertex="1">
          <mxGeometry x="395.33000000000004" y="180" width="10" height="20" as="geometry" />
        </mxCell>
        <mxCell id="RYH5115ErJz50b74uIpc-16" value="" style="rounded=0;whiteSpace=wrap;html=1;fillColor=#000000;direction=south;" parent="1" vertex="1">
          <mxGeometry x="485.33000000000004" y="265" width="10" height="20" as="geometry" />
        </mxCell>
        <mxCell id="RYH5115ErJz50b74uIpc-18" value="" style="endArrow=classic;html=1;rounded=0;strokeColor=#CC6600;strokeWidth=2;fontColor=none;exitX=0.75;exitY=0;exitDx=0;exitDy=0;entryX=0.25;entryY=0;entryDx=0;entryDy=0;" parent="1" source="RYH5115ErJz50b74uIpc-16" edge="1">
          <mxGeometry relative="1" as="geometry">
            <mxPoint x="679.9999999999999" y="469.99999999999983" as="sourcePoint" />
            <mxPoint x="631.8400000000001" y="327.83000000000004" as="targetPoint" />
            <Array as="points">
              <mxPoint x="510" y="280" />
              <mxPoint x="510" y="350" />
              <mxPoint x="632" y="350" />
            </Array>
          </mxGeometry>
        </mxCell>
        <mxCell id="RYH5115ErJz50b74uIpc-19" value="SC3" style="edgeLabel;resizable=0;html=1;align=center;verticalAlign=middle;fontColor=none;fontSize=13;" parent="RYH5115ErJz50b74uIpc-18" connectable="0" vertex="1">
          <mxGeometry relative="1" as="geometry">
            <mxPoint as="offset" />
          </mxGeometry>
        </mxCell>
        <mxCell id="RYH5115ErJz50b74uIpc-20" value="" style="endArrow=none;dashed=1;html=1;rounded=0;entryX=0.75;entryY=0;entryDx=0;entryDy=0;exitX=0.75;exitY=0;exitDx=0;exitDy=0;strokeColor=#cccc00;" parent="1" source="RYH5115ErJz50b74uIpc-9" target="RYH5115ErJz50b74uIpc-10" edge="1">
          <mxGeometry width="50" height="50" relative="1" as="geometry">
            <mxPoint x="340" y="380" as="sourcePoint" />
            <mxPoint x="390" y="330" as="targetPoint" />
            <Array as="points">
              <mxPoint x="420" y="280" />
              <mxPoint x="420" y="238" />
            </Array>
          </mxGeometry>
        </mxCell>
        <mxCell id="RYH5115ErJz50b74uIpc-21" value="" style="endArrow=none;dashed=1;html=1;rounded=0;entryX=0.25;entryY=0;entryDx=0;entryDy=0;strokeColor=#cccc00;" parent="1" target="RYH5115ErJz50b74uIpc-11" edge="1">
          <mxGeometry width="50" height="50" relative="1" as="geometry">
            <mxPoint x="420" y="240" as="sourcePoint" />
            <mxPoint x="405.33000000000004" y="180.66000000000003" as="targetPoint" />
            <Array as="points">
              <mxPoint x="420" y="220" />
              <mxPoint x="420" y="185" />
            </Array>
          </mxGeometry>
        </mxCell>
        <mxCell id="RYH5115ErJz50b74uIpc-22" value="" style="endArrow=none;dashed=1;html=1;rounded=0;entryX=0.75;entryY=0;entryDx=0;entryDy=0;exitX=0.25;exitY=0;exitDx=0;exitDy=0;strokeColor=#ff3399;" parent="1" source="RYH5115ErJz50b74uIpc-10" target="RYH5115ErJz50b74uIpc-11" edge="1">
          <mxGeometry width="50" height="50" relative="1" as="geometry">
            <mxPoint x="320" y="310" as="sourcePoint" />
            <mxPoint x="370" y="260" as="targetPoint" />
            <Array as="points">
              <mxPoint x="410" y="228" />
              <mxPoint x="410" y="220" />
              <mxPoint x="410" y="195" />
            </Array>
          </mxGeometry>
        </mxCell>
        <mxCell id="RYH5115ErJz50b74uIpc-26" value="" style="endArrow=classic;html=1;rounded=0;strokeColor=#3399FF;strokeWidth=2;fontColor=none;exitX=0.75;exitY=0;exitDx=0;exitDy=0;entryX=0.25;entryY=0;entryDx=0;entryDy=0;" parent="1" target="RYH5115ErJz50b74uIpc-16" edge="1">
          <mxGeometry relative="1" as="geometry">
            <mxPoint x="576.8400000000001" y="327.83000000000004" as="sourcePoint" />
            <mxPoint x="542.1699999999998" y="465" as="targetPoint" />
            <Array as="points">
              <mxPoint x="577" y="340" />
              <mxPoint x="530" y="340" />
              <mxPoint x="530" y="270" />
            </Array>
          </mxGeometry>
        </mxCell>
        <mxCell id="RYH5115ErJz50b74uIpc-27" value="SC2" style="edgeLabel;resizable=0;html=1;align=center;verticalAlign=middle;fontColor=none;perimeter=rectanglePerimeter;fontSize=13;" parent="RYH5115ErJz50b74uIpc-26" connectable="0" vertex="1">
          <mxGeometry relative="1" as="geometry">
            <mxPoint y="-9" as="offset" />
          </mxGeometry>
        </mxCell>
        <mxCell id="RYH5115ErJz50b74uIpc-34" value="" style="endArrow=classic;html=1;rounded=0;strokeColor=#3399FF;strokeWidth=2;fontColor=none;entryX=0.25;entryY=0;entryDx=0;entryDy=0;exitX=0.75;exitY=0;exitDx=0;exitDy=0;" parent="1" source="N7ZeSRbNAQWSS7sMdmcy-44" edge="1">
          <mxGeometry relative="1" as="geometry">
            <mxPoint x="520" y="200" as="sourcePoint" />
            <mxPoint x="632.5" y="150" as="targetPoint" />
            <Array as="points">
              <mxPoint x="530" y="195" />
              <mxPoint x="530" y="200" />
              <mxPoint x="570" y="200" />
              <mxPoint x="633" y="200" />
              <mxPoint x="633" y="195" />
            </Array>
          </mxGeometry>
        </mxCell>
        <mxCell id="RYH5115ErJz50b74uIpc-35" value="SC2" style="edgeLabel;resizable=0;html=1;align=center;verticalAlign=middle;fontColor=none;perimeter=rectanglePerimeter;fontSize=13;" parent="RYH5115ErJz50b74uIpc-34" connectable="0" vertex="1">
          <mxGeometry relative="1" as="geometry">
            <mxPoint x="-9" as="offset" />
          </mxGeometry>
        </mxCell>
        <mxCell id="RYH5115ErJz50b74uIpc-36" value="" style="endArrow=classic;html=1;rounded=0;strokeColor=#CC6600;strokeWidth=2;fontColor=none;exitX=0.75;exitY=0;exitDx=0;exitDy=0;entryX=0.25;entryY=0;entryDx=0;entryDy=0;" parent="1" target="N7ZeSRbNAQWSS7sMdmcy-44" edge="1">
          <mxGeometry relative="1" as="geometry">
            <mxPoint x="577.5" y="150" as="sourcePoint" />
            <mxPoint x="816.5100000000001" y="190.66000000000005" as="targetPoint" />
            <Array as="points">
              <mxPoint x="578" y="180" />
              <mxPoint x="530" y="180" />
              <mxPoint x="530" y="185" />
              <mxPoint x="520" y="185" />
            </Array>
          </mxGeometry>
        </mxCell>
        <mxCell id="RYH5115ErJz50b74uIpc-37" value="SC3" style="edgeLabel;resizable=0;html=1;align=center;verticalAlign=middle;fontColor=none;fontSize=13;" parent="RYH5115ErJz50b74uIpc-36" connectable="0" vertex="1">
          <mxGeometry relative="1" as="geometry">
            <mxPoint x="1" as="offset" />
          </mxGeometry>
        </mxCell>
        <mxCell id="RYH5115ErJz50b74uIpc-38" value="" style="endArrow=none;dashed=1;html=1;rounded=0;strokeColor=#cc6600;entryX=0.25;entryY=1;entryDx=0;entryDy=0;exitX=0.75;exitY=1;exitDx=0;exitDy=0;" parent="1" source="RYH5115ErJz50b74uIpc-16" target="N7ZeSRbNAQWSS7sMdmcy-44" edge="1">
          <mxGeometry width="50" height="50" relative="1" as="geometry">
            <mxPoint x="700" y="200" as="sourcePoint" />
            <mxPoint x="750" y="150" as="targetPoint" />
            <Array as="points">
              <mxPoint x="470" y="280" />
              <mxPoint x="470" y="185" />
            </Array>
          </mxGeometry>
        </mxCell>
        <mxCell id="RYH5115ErJz50b74uIpc-39" value="" style="endArrow=none;dashed=1;html=1;rounded=0;strokeColor=#3399ff;entryX=0.75;entryY=1;entryDx=0;entryDy=0;exitX=0.25;exitY=1;exitDx=0;exitDy=0;" parent="1" source="RYH5115ErJz50b74uIpc-16" target="N7ZeSRbNAQWSS7sMdmcy-44" edge="1">
          <mxGeometry width="50" height="50" relative="1" as="geometry">
            <mxPoint x="525.33" y="305.66" as="sourcePoint" />
            <mxPoint x="525.33" y="210.66000000000005" as="targetPoint" />
            <Array as="points">
              <mxPoint x="480" y="270" />
              <mxPoint x="480" y="195" />
            </Array>
          </mxGeometry>
        </mxCell>
        <mxCell id="BQJ-5Oh7cwnfoVj6qztu-1" value="" style="rounded=0;whiteSpace=wrap;html=1;" vertex="1" parent="1">
          <mxGeometry x="99.34" y="267.83" width="110.66" height="60" as="geometry" />
        </mxCell>
        <mxCell id="BQJ-5Oh7cwnfoVj6qztu-2" value="IED3" style="text;html=1;strokeColor=none;fillColor=none;align=center;verticalAlign=middle;whiteSpace=wrap;rounded=0;fontSize=15;" vertex="1" parent="1">
          <mxGeometry x="124.67000000000003" y="282.83" width="60" height="30" as="geometry" />
        </mxCell>
        <mxCell id="BQJ-5Oh7cwnfoVj6qztu-3" value="" style="rounded=0;whiteSpace=wrap;html=1;" vertex="1" parent="1">
          <mxGeometry x="550" y="90" width="110.66" height="60" as="geometry" />
        </mxCell>
        <mxCell id="BQJ-5Oh7cwnfoVj6qztu-4" value="IED4" style="text;html=1;strokeColor=none;fillColor=none;align=center;verticalAlign=middle;whiteSpace=wrap;rounded=0;fontSize=15;" vertex="1" parent="1">
          <mxGeometry x="575.33" y="105" width="60" height="30" as="geometry" />
        </mxCell>
        <mxCell id="BQJ-5Oh7cwnfoVj6qztu-5" value="" style="rounded=0;whiteSpace=wrap;html=1;" vertex="1" parent="1">
          <mxGeometry x="99.34" y="90" width="110.66" height="60" as="geometry" />
        </mxCell>
        <mxCell id="BQJ-5Oh7cwnfoVj6qztu-6" value="IED1" style="text;html=1;strokeColor=none;fillColor=none;align=center;verticalAlign=middle;whiteSpace=wrap;rounded=0;fontSize=15;" vertex="1" parent="1">
          <mxGeometry x="124.66999999999999" y="105" width="60" height="30" as="geometry" />
        </mxCell>
        <mxCell id="BQJ-5Oh7cwnfoVj6qztu-7" value="" style="rounded=0;whiteSpace=wrap;html=1;" vertex="1" parent="1">
          <mxGeometry x="294.67" y="90" width="110.66" height="60" as="geometry" />
        </mxCell>
        <mxCell id="BQJ-5Oh7cwnfoVj6qztu-8" value="IED2" style="text;html=1;strokeColor=none;fillColor=none;align=center;verticalAlign=middle;whiteSpace=wrap;rounded=0;fontSize=15;" vertex="1" parent="1">
          <mxGeometry x="320" y="105" width="60" height="30" as="geometry" />
        </mxCell>
        <mxCell id="BQJ-5Oh7cwnfoVj6qztu-9" value="" style="rounded=0;whiteSpace=wrap;html=1;" vertex="1" parent="1">
          <mxGeometry x="550" y="267.83000000000004" width="110.66" height="60" as="geometry" />
        </mxCell>
        <mxCell id="BQJ-5Oh7cwnfoVj6qztu-10" value="IED5" style="text;html=1;strokeColor=none;fillColor=none;align=center;verticalAlign=middle;whiteSpace=wrap;rounded=0;fontSize=15;" vertex="1" parent="1">
          <mxGeometry x="575.33" y="282.83000000000004" width="60" height="30" as="geometry" />
        </mxCell>
      </root>
    </mxGraphModel>
  </diagram>
</mxfile>
